<?xml version="1.0" standalone="no"?>
<!DOCTYPE svg PUBLIC "-//W3C//DTD SVG 20010904//EN"
 "http://www.w3.org/TR/2001/REC-SVG-20010904/DTD/svg10.dtd">
<svg version="1.0" xmlns="http://www.w3.org/2000/svg"
 width="200.000000pt" height="200.000000pt" viewBox="0 0 200.000000 200.000000"
 preserveAspectRatio="xMidYMid meet">

<g transform="translate(0.000000,200.000000) scale(0.100000,-0.100000)"
fill="#000000" stroke="none">
<path d="M665 1889 c-17 -26 7 -58 75 -98 133 -79 244 -202 261 -290 6 -34 7
-35 8 -6 2 70 -107 204 -229 282 -100 64 -110 72 -110 93 0 30 22 24 86 -23
109 -80 275 -287 266 -330 -8 -40 72 -127 118 -127 11 0 18 -4 15 -10 -9 -14
-69 -13 -101 2 -15 7 -33 26 -40 43 -11 25 -13 26 -14 8 0 -35 54 -73 105 -73
50 0 70 18 61 55 -8 33 -57 87 -98 109 -21 11 -55 49 -87 97 -60 90 -173 208
-239 250 -49 31 -67 35 -77 18z m405 -384 c27 -14 80 -79 80 -97 0 -5 -7 -8
-16 -8 -22 0 -104 82 -104 104 0 20 4 20 40 1z"/>
<path d="M740 1260 c0 -40 4 -70 10 -70 6 0 10 20 10 45 0 25 5 45 10 45 6 0
10 -20 10 -45 0 -25 5 -45 10 -45 6 0 10 23 10 50 0 43 -3 50 -20 50 -13 0
-20 7 -20 20 0 11 -4 20 -10 20 -6 0 -10 -30 -10 -70z"/>
<path d="M673 1309 c13 -8 17 -23 17 -64 0 -30 5 -55 10 -55 6 0 10 26 10 59
0 38 4 61 13 64 6 3 -6 6 -28 6 -32 0 -36 -2 -22 -10z"/>
<path d="M820 1240 c0 -49 1 -50 30 -50 22 0 30 5 30 17 0 13 -3 14 -12 5 -16
-16 -28 -15 -28 3 0 8 9 15 20 15 16 0 20 7 20 30 0 27 -3 30 -30 30 -29 0
-30 -1 -30 -50z m40 25 c0 -8 -4 -15 -10 -15 -5 0 -10 7 -10 15 0 8 5 15 10
15 6 0 10 -7 10 -15z"/>
<path d="M970 1089 c0 -51 4 -78 10 -74 6 3 10 40 10 81 0 43 -4 74 -10 74 -6
0 -10 -34 -10 -81z"/>
<path d="M1010 1160 c0 -5 5 -10 10 -10 6 0 10 5 10 10 0 6 -4 10 -10 10 -5 0
-10 -4 -10 -10z"/>
<path d="M1160 1089 c0 -51 4 -78 10 -74 6 3 10 40 10 81 0 43 -4 74 -10 74
-6 0 -10 -34 -10 -81z"/>
<path d="M1048 1138 c-10 -29 4 -117 19 -123 21 -7 30 2 15 17 -17 17 -15 75
3 82 12 4 15 -3 15 -37 0 -38 13 -67 30 -67 4 0 5 95 1 133 -1 11 -31 8 -31
-3 0 -5 -7 -10 -15 -10 -8 0 -15 5 -15 10 0 14 -17 12 -22 -2z"/>
<path d="M1010 1069 c0 -37 4 -58 10 -54 6 3 10 31 10 61 0 30 -4 54 -10 54
-6 0 -10 -27 -10 -61z"/>
<path d="M1200 1076 c0 -46 3 -56 20 -61 11 -3 24 -3 30 0 13 8 13 35 0 35 -5
0 -10 -4 -10 -10 0 -5 -4 -10 -10 -10 -5 0 -10 9 -10 20 0 13 7 20 20 20 16 0
20 7 20 30 0 27 -3 30 -30 30 -30 0 -30 -1 -30 -54z m40 19 c0 -8 -4 -15 -10
-15 -5 0 -10 7 -10 15 0 8 5 15 10 15 6 0 10 -7 10 -15z"/>
<path d="M1570 964 c-19 -8 -47 -27 -63 -42 l-27 -26 6 32 c4 20 2 32 -4 32
-24 0 -72 -54 -93 -105 -30 -71 -49 -79 -49 -20 0 59 -25 85 -81 85 -36 0 -47
-6 -86 -45 -24 -25 -50 -60 -58 -78 -8 -19 -20 -38 -27 -44 -10 -9 -12 -3 -10
32 3 36 0 48 -22 69 -40 41 -86 36 -142 -16 -25 -24 -54 -62 -64 -85 -18 -40
-53 -64 -70 -46 -5 4 3 34 16 67 32 73 23 86 -40 62 -24 -9 -50 -24 -56 -32
-16 -18 -34 -18 -27 1 4 8 2 17 -3 20 -20 12 -48 -17 -84 -84 -20 -39 -45 -75
-56 -81 -16 -9 -20 -4 -34 44 -19 63 -20 76 -6 76 6 0 10 7 10 15 0 21 -39 19
-77 -4 -27 -17 -133 -133 -133 -147 0 -19 32 -74 48 -83 33 -18 95 -13 143 12
l45 22 -1 -58 c0 -47 4 -61 19 -73 43 -31 52 -20 69 84 9 53 21 113 27 132 10
35 74 109 85 98 3 -3 -6 -25 -20 -49 -55 -97 -11 -157 82 -112 19 9 40 24 46
34 10 16 12 16 38 -3 22 -17 36 -19 74 -14 56 9 101 27 139 57 25 20 29 20 37
6 23 -41 151 -22 221 33 29 24 37 26 42 15 7 -19 51 -36 71 -29 11 5 15 22 15
64 0 52 3 60 36 94 20 20 38 35 40 33 2 -2 -3 -20 -11 -40 -21 -51 -19 -93 6
-118 40 -40 109 -6 150 73 20 40 25 78 10 78 -5 0 -13 -9 -16 -20 -4 -11 -18
-28 -31 -37 -37 -24 -47 -7 -33 56 11 51 8 81 -8 81 -4 -1 -24 -8 -43 -16z
m-312 -117 c4 -35 -22 -77 -48 -77 -16 0 -20 7 -20 33 0 66 61 106 68 44z
m-268 -22 c16 -19 6 -59 -21 -86 -42 -42 -68 25 -28 75 24 30 32 32 49 11z
m-560 -102 c0 -69 -35 -99 -61 -52 -9 18 -7 26 17 50 35 36 44 36 44 2z"/>
</g>
</svg>
