<svg width="300" height="300" viewBox="0 0 300 300" fill="none" xmlns="http://www.w3.org/2000/svg">
<g clip-path="url(#clip0)">
<path d="M224.078 149.591C236.195 137.473 239.823 121.454 232.18 113.812C224.537 106.169 208.518 109.796 196.401 121.914C184.283 134.032 180.656 150.05 188.299 157.693C195.941 165.336 211.96 161.708 224.078 149.591Z" fill="#FFD064"/>
<path d="M232.582 158.071C249.388 141.265 253.016 117.645 240.686 105.314C228.355 92.9836 204.735 96.6117 187.929 113.418C178.835 122.512 173.601 133.6 172.665 143.815C171.74 153.918 167.394 163.4 160.094 170.445L101.782 226.717C96.8016 231.524 96.731 239.481 101.625 244.375C106.52 249.269 114.476 249.198 119.283 244.218L175.555 185.906C182.6 178.606 192.082 174.261 202.185 173.335C212.4 172.399 223.488 167.165 232.582 158.071V158.071Z" fill="#EAAA89"/>
<path d="M240.685 105.315C237.199 101.828 232.81 99.6175 227.927 98.6199C228.16 98.8341 228.388 99.0535 228.613 99.2782C240.944 111.609 237.316 135.229 220.51 152.035C211.416 161.129 200.328 166.363 190.113 167.299C180.01 168.224 170.527 172.57 163.482 179.87L107.21 238.182C105.129 240.339 102.456 241.575 99.6975 241.885C100.22 242.774 100.862 243.612 101.625 244.375C106.52 249.269 114.476 249.199 119.283 244.218L175.554 185.906C182.599 178.606 192.082 174.261 202.185 173.335C212.4 172.4 223.488 167.166 232.582 158.072C249.388 141.265 253.016 117.645 240.685 105.315V105.315Z" fill="#E4936B"/>
<path d="M202.962 102.601L200.516 111.208C199.357 115.283 198.321 119.46 197.435 123.625L191.669 129.615C192.795 123.108 194.329 116.413 196.161 109.97L197.354 105.773C199.194 104.582 201.069 103.524 202.962 102.601V102.601ZM193.283 159.792L188.995 153.213C188.578 160.847 188.641 168.792 189.171 176.584C190.616 175.973 192.096 175.44 193.605 174.989C193.295 169.933 193.187 164.824 193.283 159.792V159.792ZM215.35 155.219C216.037 159.73 216.894 164.275 217.896 168.716C219.285 168.027 220.664 167.264 222.026 166.429C220.824 160.922 219.852 155.274 219.161 149.757L215.35 155.219ZM219.672 98.0539C218.141 98.138 216.587 98.3208 215.02 98.6006C214.239 104.144 213.694 109.774 213.414 115.217L218.232 110.858C218.561 106.612 219.046 102.301 219.672 98.0539V98.0539ZM172.665 143.815C172.204 148.845 170.896 153.721 168.797 158.219C168.306 166.025 168.423 171.789 168.482 174.7C168.497 175.454 168.509 176.05 168.501 176.319C168.501 176.328 168.501 176.338 168.5 176.347C168.438 178.414 168.136 180.551 167.602 182.699C165.776 190.05 161.318 197.55 155.051 203.817C148.783 210.085 141.283 214.542 133.933 216.368C126.759 218.151 120.049 217.302 114.978 213.983L111.654 217.19C115.898 220.245 121.104 221.809 126.77 221.809C129.437 221.809 132.206 221.462 135.025 220.762C138.843 219.813 142.686 218.235 146.397 216.12L168.302 193.421C169.945 190.257 171.194 187.015 171.996 183.791C172.596 181.376 172.941 178.963 173.021 176.616C173.028 176.541 173.03 176.466 173.028 176.39C173.036 176.011 173.025 175.443 173.008 174.608C172.886 168.586 172.511 150.075 178.043 126.634C174.997 132.307 173.18 138.193 172.665 143.815V143.815ZM127.234 210.053C134.439 210.053 143.134 205.981 150.174 198.94C159.212 189.903 163.399 178.181 160.269 170.276C160.211 170.333 160.152 170.389 160.094 170.446L156.588 173.829C157.705 180.022 153.898 188.814 146.973 195.739C139.678 203.034 130.298 206.842 124.136 205.145L120.548 208.608C122.525 209.586 124.793 210.053 127.234 210.053V210.053ZM113.611 229.188L108.738 234.061C107.854 234.944 107.854 236.378 108.738 237.262C109.181 237.704 109.76 237.925 110.339 237.925C110.918 237.925 111.498 237.704 111.939 237.262L116.812 232.39C117.696 231.506 117.696 230.073 116.812 229.188C115.928 228.305 114.494 228.305 113.611 229.188V229.188Z" fill="#E4936B"/>
<path d="M188.765 167.443C188.829 170.495 188.965 173.551 189.171 176.584C190.616 175.973 192.096 175.44 193.605 174.989C193.44 172.293 193.332 169.582 193.282 166.875C192.218 167.062 191.161 167.203 190.113 167.299C189.662 167.34 189.213 167.388 188.765 167.443V167.443Z" fill="#E27D47"/>
<path d="M215.545 156.47C216.197 160.569 216.987 164.686 217.897 168.716C219.286 168.027 220.664 167.264 222.026 166.429C221.054 161.976 220.233 157.43 219.588 152.936C218.276 154.193 216.925 155.372 215.545 156.47V156.47Z" fill="#E27D47"/>
<path d="M108.738 237.262C109.181 237.704 109.76 237.925 110.339 237.925C110.918 237.925 111.498 237.703 111.939 237.262L116.812 232.389C117.696 231.506 117.696 230.072 116.812 229.188C116.649 229.025 116.467 228.892 116.273 228.789L108.445 236.901C108.529 237.029 108.627 237.15 108.738 237.262Z" fill="#E27D47"/>
<path d="M126.771 221.809C129.438 221.809 132.207 221.462 135.025 220.762C138.844 219.813 142.687 218.235 146.398 216.12L168.303 193.421C169.945 190.257 171.195 187.015 171.996 183.791C172.596 181.376 172.941 178.963 173.022 176.616C173.028 176.541 173.03 176.466 173.029 176.39C173.037 176.011 173.025 175.443 173.008 174.608C172.997 174.038 172.983 173.356 172.972 172.568C171.423 173.434 169.928 174.4 168.497 175.463C168.504 175.85 168.507 176.15 168.502 176.319C168.502 176.328 168.501 176.338 168.501 176.347C168.439 178.414 168.137 180.551 167.603 182.699C165.777 190.05 161.319 197.55 155.052 203.817C148.784 210.085 141.284 214.542 133.934 216.368C131.694 216.925 129.5 217.225 127.387 217.273L123.216 221.596C124.376 221.738 125.563 221.809 126.771 221.809V221.809Z" fill="#E27D47"/>
<path d="M136.043 208.303C140.892 206.475 145.846 203.269 150.174 198.94C154.915 194.2 158.321 188.72 160.036 183.44L136.043 208.303Z" fill="#E27D47"/>
<path d="M235.829 120.99C235.058 131.383 229.796 142.749 220.51 152.035C219.384 153.161 218.228 154.227 217.046 155.234C219.677 153.529 222.086 151.595 224.096 149.586C231.357 142.324 237.436 130.177 235.829 120.99V120.99Z" fill="#C17D4F"/>
<path d="M224.078 149.591C236.195 137.473 239.823 121.454 232.18 113.812C224.537 106.169 208.518 109.796 196.401 121.914C184.283 134.032 180.656 150.05 188.299 157.693C195.941 165.336 211.96 161.708 224.078 149.591Z" fill="#E27D47"/>
<path d="M235.829 120.99C235.058 131.383 229.796 142.749 220.51 152.035C219.384 153.161 218.228 154.227 217.046 155.234C219.677 153.529 222.086 151.595 224.096 149.586C231.357 142.324 237.436 130.177 235.829 120.99V120.99Z" fill="#DD6938"/>
</g>
<path d="M72.1445 61.9922C71.8633 62.0859 71.6523 62.0977 71.5117 62.0273C71.3711 61.957 71.2656 61.8398 71.1953 61.6758C71.125 61.5117 71.0898 61.3359 71.0898 61.1484C71.0898 60.9375 71.1016 60.7383 71.125 60.5508C71.1484 60.3867 71.1836 60.1992 71.2305 59.9883C71.3008 59.7773 71.3828 59.5781 71.4766 59.3906C71.5703 59.2031 71.6758 59.0508 71.793 58.9336C71.9336 58.793 72.1094 58.6992 72.3203 58.6523C73.3984 58.4648 74.4414 58.3242 75.4492 58.2305C76.4805 58.1367 77.4062 58.0664 78.2266 58.0195C79.1641 57.9492 80.0664 57.9141 80.9336 57.9141C81.1211 57.9141 81.3086 57.9258 81.4961 57.9492C81.6836 57.9492 81.8711 57.9492 82.0586 57.9492C82.2695 57.9023 82.4336 57.8906 82.5508 57.9141C82.6914 57.9141 82.8086 57.9258 82.9023 57.9492C83.582 57.9727 84.2852 58.0078 85.0117 58.0547C85.6211 58.1016 86.3008 58.1602 87.0508 58.2305C87.8242 58.2773 88.5859 58.3477 89.3359 58.4414C89.4062 58.6289 89.418 58.8633 89.3711 59.1445C89.3477 59.2852 89.3242 59.4258 89.3008 59.5664C89.2773 59.707 89.2188 59.8359 89.125 59.9531C89.0547 60.0703 88.9609 60.1875 88.8438 60.3047C88.75 60.3984 88.6328 60.4805 88.4922 60.5508C87.6953 60.5273 86.9219 60.5156 86.1719 60.5156C85.4453 60.4922 84.8008 60.4805 84.2383 60.4805H82.3398C82.0352 61.5586 81.6602 62.8945 81.2148 64.4883C80.7695 66.0586 80.3125 67.7227 79.8438 69.4805C79.3984 71.2148 78.9648 72.9492 78.543 74.6836C78.1445 76.3945 77.8281 77.9414 77.5938 79.3242C77.3594 80.6602 77.125 81.9727 76.8906 83.2617C76.7969 83.8008 76.6914 84.3633 76.5742 84.9492C76.4805 85.5352 76.3867 86.1094 76.293 86.6719C76.2227 87.2344 76.1523 87.7734 76.082 88.2891C76.0117 88.8047 75.9531 89.2734 75.9062 89.6953C75.5312 89.8828 75.1797 90.0234 74.8516 90.1172C74.5234 90.2344 74.2305 90.3164 73.9727 90.3633C73.668 90.4336 73.3867 90.4688 73.1289 90.4688C72.5664 90.4688 72.2148 90.3984 72.0742 90.2578C71.957 90.1406 71.9453 89.8945 72.0391 89.5195C72.1094 89.1914 72.3203 88.3008 72.6719 86.8477C72.8125 86.2383 72.9883 85.4648 73.1992 84.5273C73.4336 83.6133 73.7031 82.5 74.0078 81.1875C74.3125 79.8516 74.6758 78.3047 75.0977 76.5469C75.5195 74.7656 76 72.7266 76.5391 70.4297L78.8945 60.6562C78.1914 60.75 77.5 60.8555 76.8203 60.9727C76.1406 61.0898 75.4961 61.2188 74.8867 61.3594C74.3008 61.4766 73.7617 61.5938 73.2695 61.7109C72.8008 61.8281 72.4258 61.9219 72.1445 61.9922ZM103.398 76.2656C103.562 76.0781 103.727 75.9844 103.891 75.9844C104.078 75.9609 104.219 76.0078 104.312 76.125C104.43 76.2188 104.477 76.3711 104.453 76.582C104.453 76.793 104.359 77.0273 104.172 77.2852C103.727 77.8945 103.211 78.5273 102.625 79.1836C102.039 79.8164 101.406 80.4375 100.727 81.0469C100.07 81.6562 99.4023 82.2305 98.7227 82.7695C98.043 83.3086 97.3867 83.7539 96.7539 84.1055C96.0508 84.5039 95.4531 84.7031 94.9609 84.7031C94.4922 84.7031 94.0234 84.3984 93.5547 83.7891C93.1328 83.25 92.9219 82.6758 92.9219 82.0664C92.9453 81.4336 93.0859 80.6484 93.3438 79.7109C93.5078 79.125 93.7305 78.4336 94.0117 77.6367C94.3164 76.8164 94.5508 76.0312 94.7148 75.2812C94.9023 74.5312 94.9609 73.8984 94.8906 73.3828C94.8203 72.8438 94.5156 72.5742 93.9766 72.5742C93.6016 72.5742 93.1914 72.7031 92.7461 72.9609C92.3242 73.2188 91.8906 73.5586 91.4453 73.9805C91.0234 74.3789 90.6133 74.8359 90.2148 75.3516C89.8164 75.8672 89.4648 76.3711 89.1602 76.8633C88.9727 77.7773 88.7852 78.6797 88.5977 79.5703C88.4336 80.3203 88.2578 81.1406 88.0703 82.0312C87.9062 82.8984 87.7422 83.6719 87.5781 84.3516C87.4375 84.4688 87.2852 84.5508 87.1211 84.5977C86.957 84.6445 86.8047 84.668 86.6641 84.668C86.5 84.668 86.3359 84.6562 86.1719 84.6328C85.9844 84.5859 85.8086 84.5156 85.6445 84.4219C85.5039 84.3281 85.3633 84.1992 85.2227 84.0352C85.082 83.8945 84.9766 83.6953 84.9062 83.4375C85.9609 79.1016 86.793 75.6211 87.4023 72.9961C88.0117 70.3711 88.4805 68.3672 88.8086 66.9844C89.1836 65.3438 89.4414 64.207 89.582 63.5742C89.6523 63.1289 89.7109 62.6953 89.7578 62.2734C89.8047 61.8984 89.8281 61.5117 89.8281 61.1133C89.8281 60.7148 89.793 60.3516 89.7227 60.0234C89.9102 59.9062 90.1094 59.8125 90.3203 59.7422C90.5547 59.6719 90.7773 59.6133 90.9883 59.5664C91.2461 59.4961 91.5039 59.4375 91.7617 59.3906C92.0195 59.3438 92.2539 59.3203 92.4648 59.3203C92.6523 59.3203 92.8281 59.3438 92.9922 59.3906C93.1562 59.4141 93.2617 59.4844 93.3086 59.6016C93.4492 59.7188 93.5078 59.9531 93.4844 60.3047C93.4844 60.6562 93.4609 61.0195 93.4141 61.3945C93.3203 61.8398 93.2148 62.3203 93.0977 62.8359C92.6055 64.7344 92.0547 66.5859 91.4453 68.3906C90.8359 70.1719 90.2734 72.082 89.7578 74.1211C90.0625 73.6523 90.4258 73.1719 90.8477 72.6797C91.2695 72.1875 91.7266 71.7422 92.2188 71.3438C92.7344 70.9219 93.2734 70.582 93.8359 70.3242C94.3984 70.043 94.9961 69.9023 95.6289 69.9023C95.957 69.9023 96.2617 69.9609 96.543 70.0781C96.8477 70.1719 97.1055 70.3477 97.3164 70.6055C97.5508 70.8398 97.7266 71.168 97.8438 71.5898C97.9609 71.9883 98.0078 72.4922 97.9844 73.1016C97.9844 73.4766 97.9375 73.8633 97.8438 74.2617C97.7734 74.6602 97.668 75.1055 97.5273 75.5977C97.3867 76.0664 97.1992 76.5938 96.9648 77.1797C96.7539 77.7656 96.4961 78.4453 96.1914 79.2188C95.9805 79.7578 95.8164 80.2148 95.6992 80.5898C95.582 80.9648 95.6055 81.293 95.7695 81.5742C95.9805 81.9492 96.3906 82.043 97 81.8555C97.6328 81.6445 98.5703 81.0352 99.8125 80.0273C100.094 79.793 100.41 79.5 100.762 79.1484C101.113 78.7969 101.453 78.4453 101.781 78.0938C102.109 77.7188 102.414 77.3672 102.695 77.0391C102.977 76.7109 103.211 76.4531 103.398 76.2656ZM117.953 76.6875C117.25 77.7188 116.453 78.7266 115.562 79.7109C114.672 80.6719 113.723 81.5391 112.715 82.3125C111.73 83.0625 110.711 83.6719 109.656 84.1406C108.625 84.6094 107.617 84.8438 106.633 84.8438C106.117 84.8438 105.555 84.7148 104.945 84.457C104.359 84.2227 103.82 83.8477 103.328 83.332C102.836 82.8164 102.438 82.1484 102.133 81.3281C101.852 80.5078 101.77 79.5117 101.887 78.3398C101.98 77.3789 102.273 76.3711 102.766 75.3164C103.281 74.2383 103.902 73.2539 104.629 72.3633C105.379 71.4727 106.211 70.7344 107.125 70.1484C108.062 69.5625 109 69.2695 109.938 69.2695C110.828 69.2695 111.473 69.4922 111.871 69.9375C112.27 70.3828 112.445 70.9336 112.398 71.5898C112.328 72.3164 112.117 72.9844 111.766 73.5938C111.438 74.2031 111.039 74.7539 110.57 75.2461C110.102 75.7383 109.598 76.1836 109.059 76.582C108.543 76.9805 108.051 77.3438 107.582 77.6719C107.066 78.0234 106.574 78.3633 106.105 78.6914C105.637 78.9961 105.227 79.2773 104.875 79.5352C104.898 80.1211 105.004 80.6133 105.191 81.0117C105.379 81.4102 105.613 81.7383 105.895 81.9961C106.176 82.2305 106.492 82.4062 106.844 82.5234C107.219 82.6172 107.594 82.6641 107.969 82.6641C108.766 82.6641 109.598 82.418 110.465 81.9258C111.332 81.4102 112.176 80.8008 112.996 80.0977C113.84 79.3711 114.613 78.6211 115.316 77.8477C116.043 77.0742 116.641 76.4062 117.109 75.8438C117.273 75.6562 117.438 75.5508 117.602 75.5273C117.789 75.4805 117.93 75.5039 118.023 75.5977C118.141 75.668 118.199 75.8086 118.199 76.0195C118.199 76.207 118.117 76.4297 117.953 76.6875ZM108.953 71.2734C108.672 71.2734 108.332 71.4141 107.934 71.6953C107.559 71.9766 107.184 72.3867 106.809 72.9258C106.434 73.4414 106.082 74.0859 105.754 74.8594C105.426 75.6094 105.18 76.4766 105.016 77.4609C105.297 77.25 105.602 77.0391 105.93 76.8281C106.258 76.5938 106.586 76.3477 106.914 76.0898C107.922 75.3164 108.625 74.6367 109.023 74.0508C109.422 73.4648 109.645 72.9609 109.691 72.5391C109.738 72.0938 109.691 71.7773 109.551 71.5898C109.41 71.3789 109.211 71.2734 108.953 71.2734ZM131.312 72.0469C130.117 72.0469 129.145 71.918 128.395 71.6602C127.668 71.4023 127.176 71.0742 126.918 70.6758C126.801 70.5117 126.695 70.2656 126.602 69.9375C126.508 69.6094 126.543 69.2461 126.707 68.8477C127.035 69.1055 127.387 69.3047 127.762 69.4453C128.16 69.5625 128.523 69.6445 128.852 69.6914C129.25 69.7617 129.637 69.7969 130.012 69.7969C130.715 69.7969 131.395 69.7383 132.051 69.6211C132.73 69.5039 133.398 69.3398 134.055 69.1289C134.336 67.7227 134.605 66.457 134.863 65.332C135.145 64.207 135.461 63.293 135.812 62.5898C136.188 61.8164 136.574 61.125 136.973 60.5156C137.395 59.8828 137.852 59.3555 138.344 58.9336C138.859 58.4883 139.422 58.1484 140.031 57.9141C140.641 57.6797 141.344 57.5625 142.141 57.5625C142.727 57.5625 143.184 57.6797 143.512 57.9141C143.863 58.1484 144.121 58.4414 144.285 58.793C144.473 59.1445 144.578 59.5312 144.602 59.9531C144.648 60.3516 144.672 60.7266 144.672 61.0781C144.672 61.8516 144.484 62.6953 144.109 63.6094C143.734 64.5234 143.207 65.4258 142.527 66.3164C141.848 67.207 141.027 68.0508 140.066 68.8477C139.129 69.6445 138.074 70.3008 136.902 70.8164C136.504 72.3633 136.105 73.8984 135.707 75.4219C135.332 76.9219 134.957 78.1641 134.582 79.1484C134.254 80.0625 133.832 81.082 133.316 82.207C132.824 83.332 132.215 84.4102 131.488 85.4414C131.934 85.7227 132.379 86.0156 132.824 86.3203C133.293 86.625 133.762 86.8945 134.23 87.1289C134.699 87.3867 135.168 87.5977 135.637 87.7617C136.129 87.9258 136.645 88.0078 137.184 88.0078C137.746 87.9844 138.297 87.9023 138.836 87.7617C139.305 87.6445 139.797 87.4453 140.312 87.1641C140.828 86.9062 141.309 86.5312 141.754 86.0391C141.918 86.3203 141.965 86.7422 141.895 87.3047C141.848 87.8672 141.672 88.4297 141.367 88.9922C141.062 89.5547 140.629 90.0469 140.066 90.4688C139.504 90.8906 138.801 91.1016 137.957 91.1016C137.066 91.1016 136.234 90.9727 135.461 90.7148C134.688 90.4805 133.961 90.1875 133.281 89.8359C132.602 89.4844 131.957 89.0977 131.348 88.6758C130.762 88.2773 130.211 87.9023 129.695 87.5508C128.992 88.2305 128.219 88.7812 127.375 89.2031C126.531 89.625 125.594 89.8359 124.562 89.8359C123.742 89.8359 123.086 89.6016 122.594 89.1328C122.102 88.6875 121.879 88.0781 121.926 87.3047C121.949 87.0234 122.031 86.6836 122.172 86.2852C122.312 85.9102 122.582 85.5469 122.98 85.1953C123.355 84.8438 123.883 84.5391 124.562 84.2812C125.242 84.0469 126.121 83.9297 127.199 83.9297C127.598 83.9297 127.973 83.9648 128.324 84.0352C128.699 84.1289 129.062 84.2344 129.414 84.3516C129.672 83.8828 129.93 83.3438 130.188 82.7344C130.445 82.125 130.727 81.4336 131.031 80.6602C131.57 79.1836 132.039 77.707 132.438 76.2305C132.836 74.7305 133.176 73.2773 133.457 71.8711C133.129 71.9414 132.777 71.9883 132.402 72.0117C132.051 72.0352 131.688 72.0469 131.312 72.0469ZM125.477 87.9375C125.781 87.8203 126.133 87.7031 126.531 87.5859C126.93 87.4688 127.387 87.1406 127.902 86.6016C127.551 86.4844 127.281 86.4258 127.094 86.4258C126.25 86.4258 125.641 86.543 125.266 86.7773C124.867 87.0352 124.668 87.2812 124.668 87.5156C124.668 87.6797 124.738 87.7969 124.879 87.8672C125.02 87.9609 125.219 87.9844 125.477 87.9375ZM138.766 63.4688C138.648 63.8203 138.496 64.3359 138.309 65.0156C138.121 65.6953 137.922 66.4805 137.711 67.3711C138.977 66.5508 139.984 65.6133 140.734 64.5586C141.508 63.5039 141.895 62.4492 141.895 61.3945C141.895 60.7617 141.707 60.4453 141.332 60.4453C141.004 60.4453 140.582 60.7031 140.066 61.2188C139.551 61.7109 139.117 62.4609 138.766 63.4688ZM150.965 63.293C150.895 63.5508 150.754 63.8086 150.543 64.0664C150.355 64.3008 150.133 64.5 149.875 64.6641C149.641 64.8047 149.395 64.8984 149.137 64.9453C148.879 64.9922 148.668 64.9453 148.504 64.8047C148.012 64.4297 147.754 64.0312 147.73 63.6094C147.707 63.1641 147.812 62.7539 148.047 62.3789C148.281 61.9805 148.574 61.6523 148.926 61.3945C149.277 61.1133 149.582 60.9492 149.84 60.9023C150.098 60.8555 150.309 60.9141 150.473 61.0781C150.66 61.2188 150.801 61.418 150.895 61.6758C150.988 61.9102 151.035 62.1797 151.035 62.4844C151.059 62.7891 151.035 63.0586 150.965 63.293ZM146.113 70.7812C146.23 70.6406 146.453 70.5234 146.781 70.4297C147.109 70.3359 147.449 70.2656 147.801 70.2188C148.152 70.1484 148.469 70.1133 148.75 70.1133C149.055 70.0898 149.23 70.0898 149.277 70.1133C149.301 70.1367 149.242 70.3828 149.102 70.8516C148.961 71.3203 148.785 71.8711 148.574 72.5039C148.363 73.1367 148.141 73.793 147.906 74.4727C147.672 75.1289 147.496 75.668 147.379 76.0898C147.262 76.5117 147.121 76.9922 146.957 77.5312C146.793 78.0469 146.641 78.5625 146.5 79.0781C146.383 79.5703 146.301 80.0391 146.254 80.4844C146.207 80.9297 146.242 81.2695 146.359 81.5039C146.477 81.7852 146.605 81.9844 146.746 82.1016C146.887 82.1953 147.039 82.2422 147.203 82.2422C147.672 82.2422 148.258 81.9844 148.961 81.4688C149.688 80.9531 150.414 80.3438 151.141 79.6406C151.891 78.9141 152.582 78.1875 153.215 77.4609C153.848 76.7109 154.316 76.1133 154.621 75.668C154.809 75.4336 154.996 75.2812 155.184 75.2109C155.395 75.1406 155.559 75.1523 155.676 75.2461C155.816 75.3398 155.887 75.4922 155.887 75.7031C155.91 75.9141 155.84 76.1602 155.676 76.4414C155.301 77.0977 154.75 77.8828 154.023 78.7969C153.297 79.6875 152.523 80.5547 151.703 81.3984C150.883 82.2188 150.074 82.9219 149.277 83.5078C148.504 84.0938 147.871 84.3984 147.379 84.4219C146.98 84.4453 146.582 84.375 146.184 84.2109C145.809 84.0703 145.457 83.8711 145.129 83.6133C144.824 83.332 144.566 83.0156 144.355 82.6641C144.145 82.2891 144.027 81.9023 144.004 81.5039C143.934 80.918 143.934 80.1211 144.004 79.1133C144.074 78.082 144.203 77.0391 144.391 75.9844C144.578 74.9062 144.812 73.8867 145.094 72.9258C145.398 71.9648 145.738 71.25 146.113 70.7812ZM166.082 75.1055C166.176 74.9648 166.293 74.8828 166.434 74.8594C166.598 74.8125 166.727 74.8242 166.82 74.8945C166.914 74.9648 166.961 75.082 166.961 75.2461C166.984 75.4102 166.926 75.6328 166.785 75.9141C166.316 76.8047 165.695 77.7656 164.922 78.7969C164.172 79.8281 163.375 80.8008 162.531 81.7148C161.688 82.6055 160.867 83.3438 160.07 83.9297C159.273 84.5156 158.605 84.8086 158.066 84.8086C157.293 84.8086 156.648 84.6562 156.133 84.3516C155.617 84.0469 155.207 83.6719 154.902 83.2266C154.621 82.7812 154.422 82.3008 154.305 81.7852C154.188 81.2461 154.152 80.7539 154.199 80.3086C154.223 79.9336 154.305 79.2656 154.445 78.3047C154.586 77.3203 154.773 76.1953 155.008 74.9297C155.242 73.6406 155.5 72.2695 155.781 70.8164C156.086 69.3398 156.402 67.9219 156.73 66.5625C156.332 66.6094 155.934 66.6562 155.535 66.7031C155.137 66.75 154.773 66.7734 154.445 66.7734C153.695 66.7734 152.992 66.6914 152.336 66.5273C151.656 66.3398 151.152 66.1641 150.824 66C150.637 65.9062 150.555 65.7773 150.578 65.6133C150.602 65.4258 150.672 65.25 150.789 65.0859C150.906 64.8984 151.059 64.7461 151.246 64.6289C151.41 64.4883 151.562 64.418 151.703 64.418C152.148 64.4648 152.629 64.5117 153.145 64.5586C153.66 64.582 154.223 64.582 154.832 64.5586C155.277 64.5352 155.699 64.5 156.098 64.4531C156.52 64.4062 156.93 64.3477 157.328 64.2773C157.633 63.1523 157.926 62.1797 158.207 61.3594C158.512 60.5156 158.781 59.9297 159.016 59.6016C159.086 59.4844 159.238 59.3906 159.473 59.3203C159.73 59.2266 160 59.168 160.281 59.1445C160.562 59.0977 160.832 59.0977 161.09 59.1445C161.348 59.168 161.535 59.25 161.652 59.3906C161.77 59.5781 161.816 60.0586 161.793 60.832C161.77 61.6055 161.641 62.5898 161.406 63.7852C162.391 63.7852 163.258 63.8438 164.008 63.9609C164.781 64.0547 165.438 64.1719 165.977 64.3125C166.516 64.4297 166.949 64.5586 167.277 64.6992C167.605 64.8164 167.852 64.8984 168.016 64.9453C168.18 64.9922 168.262 65.1094 168.262 65.2969C168.285 65.4844 168.25 65.6836 168.156 65.8945C168.086 66.082 167.957 66.2461 167.77 66.3867C167.582 66.5273 167.371 66.5742 167.137 66.5273C166.902 66.5039 166.633 66.457 166.328 66.3867C166.047 66.3164 165.695 66.2578 165.273 66.2109C164.875 66.1641 164.395 66.1172 163.832 66.0703C163.27 66.0234 162.613 66 161.863 66C161.723 66 161.559 66.0117 161.371 66.0352C161.207 66.0352 161.031 66.0352 160.844 66.0352C160.75 66.4102 160.656 66.7852 160.562 67.1602C160.492 67.5117 160.387 67.8867 160.246 68.2852C159.941 69.2227 159.59 70.2422 159.191 71.3438C158.84 72.3047 158.418 73.4062 157.926 74.6484C157.434 75.8906 156.883 77.2148 156.273 78.6211C156.133 79.6289 156.145 80.4023 156.309 80.9414C156.496 81.457 156.719 81.832 156.977 82.0664C157.281 82.3242 157.656 82.4648 158.102 82.4883C158.453 82.5352 158.875 82.418 159.367 82.1367C159.883 81.832 160.41 81.4336 160.949 80.9414C161.488 80.4492 162.027 79.9102 162.566 79.3242C163.129 78.7383 163.645 78.1641 164.113 77.6016C164.582 77.0391 164.992 76.5352 165.344 76.0898C165.695 75.6211 165.941 75.293 166.082 75.1055ZM176.945 75.1055C177.039 74.9648 177.156 74.8828 177.297 74.8594C177.461 74.8125 177.59 74.8242 177.684 74.8945C177.777 74.9648 177.824 75.082 177.824 75.2461C177.848 75.4102 177.789 75.6328 177.648 75.9141C177.18 76.8047 176.559 77.7656 175.785 78.7969C175.035 79.8281 174.238 80.8008 173.395 81.7148C172.551 82.6055 171.73 83.3438 170.934 83.9297C170.137 84.5156 169.469 84.8086 168.93 84.8086C168.156 84.8086 167.512 84.6562 166.996 84.3516C166.48 84.0469 166.07 83.6719 165.766 83.2266C165.484 82.7812 165.285 82.3008 165.168 81.7852C165.051 81.2461 165.016 80.7539 165.062 80.3086C165.086 79.9336 165.168 79.2656 165.309 78.3047C165.449 77.3203 165.637 76.1953 165.871 74.9297C166.105 73.6406 166.363 72.2695 166.645 70.8164C166.949 69.3398 167.266 67.9219 167.594 66.5625C167.195 66.6094 166.797 66.6562 166.398 66.7031C166 66.75 165.637 66.7734 165.309 66.7734C164.559 66.7734 163.855 66.6914 163.199 66.5273C162.52 66.3398 162.016 66.1641 161.688 66C161.5 65.9062 161.418 65.7773 161.441 65.6133C161.465 65.4258 161.535 65.25 161.652 65.0859C161.77 64.8984 161.922 64.7461 162.109 64.6289C162.273 64.4883 162.426 64.418 162.566 64.418C163.012 64.4648 163.492 64.5117 164.008 64.5586C164.523 64.582 165.086 64.582 165.695 64.5586C166.141 64.5352 166.562 64.5 166.961 64.4531C167.383 64.4062 167.793 64.3477 168.191 64.2773C168.496 63.1523 168.789 62.1797 169.07 61.3594C169.375 60.5156 169.645 59.9297 169.879 59.6016C169.949 59.4844 170.102 59.3906 170.336 59.3203C170.594 59.2266 170.863 59.168 171.145 59.1445C171.426 59.0977 171.695 59.0977 171.953 59.1445C172.211 59.168 172.398 59.25 172.516 59.3906C172.633 59.5781 172.68 60.0586 172.656 60.832C172.633 61.6055 172.504 62.5898 172.27 63.7852C173.254 63.7852 174.121 63.8438 174.871 63.9609C175.645 64.0547 176.301 64.1719 176.84 64.3125C177.379 64.4297 177.812 64.5586 178.141 64.6992C178.469 64.8164 178.715 64.8984 178.879 64.9453C179.043 64.9922 179.125 65.1094 179.125 65.2969C179.148 65.4844 179.113 65.6836 179.02 65.8945C178.949 66.082 178.82 66.2461 178.633 66.3867C178.445 66.5273 178.234 66.5742 178 66.5273C177.766 66.5039 177.496 66.457 177.191 66.3867C176.91 66.3164 176.559 66.2578 176.137 66.2109C175.738 66.1641 175.258 66.1172 174.695 66.0703C174.133 66.0234 173.477 66 172.727 66C172.586 66 172.422 66.0117 172.234 66.0352C172.07 66.0352 171.895 66.0352 171.707 66.0352C171.613 66.4102 171.52 66.7852 171.426 67.1602C171.355 67.5117 171.25 67.8867 171.109 68.2852C170.805 69.2227 170.453 70.2422 170.055 71.3438C169.703 72.3047 169.281 73.4062 168.789 74.6484C168.297 75.8906 167.746 77.2148 167.137 78.6211C166.996 79.6289 167.008 80.4023 167.172 80.9414C167.359 81.457 167.582 81.832 167.84 82.0664C168.145 82.3242 168.52 82.4648 168.965 82.4883C169.316 82.5352 169.738 82.418 170.23 82.1367C170.746 81.832 171.273 81.4336 171.812 80.9414C172.352 80.4492 172.891 79.9102 173.43 79.3242C173.992 78.7383 174.508 78.1641 174.977 77.6016C175.445 77.0391 175.855 76.5352 176.207 76.0898C176.559 75.6211 176.805 75.293 176.945 75.1055ZM174.309 83.4375C175.34 79.1016 176.16 75.6211 176.77 72.9961C177.402 70.3711 177.883 68.3672 178.211 66.9844C178.586 65.3438 178.844 64.207 178.984 63.5742C179.055 63.1289 179.113 62.6953 179.16 62.2734C179.207 61.8984 179.23 61.5117 179.23 61.1133C179.23 60.7148 179.195 60.3516 179.125 60.0234C179.312 59.9062 179.512 59.8125 179.723 59.7422C179.957 59.6719 180.18 59.6133 180.391 59.5664C180.648 59.4961 180.906 59.4375 181.164 59.3906C181.422 59.3438 181.656 59.3203 181.867 59.3203C182.055 59.3203 182.23 59.3438 182.395 59.3906C182.559 59.4141 182.664 59.4844 182.711 59.6016C182.852 59.7188 182.91 59.9531 182.887 60.3047C182.887 60.6562 182.863 61.0195 182.816 61.3945C182.723 61.8398 182.617 62.3203 182.5 62.8359C182.219 63.8438 181.832 65.2969 181.34 67.1953C180.918 68.8125 180.344 71.0156 179.617 73.8047C178.914 76.5938 178.023 80.1094 176.945 84.3516C176.828 84.4688 176.688 84.5508 176.523 84.5977C176.359 84.6445 176.207 84.668 176.066 84.668C175.902 84.668 175.727 84.6562 175.539 84.6328C175.375 84.5859 175.211 84.5156 175.047 84.4219C174.906 84.3281 174.766 84.1992 174.625 84.0352C174.484 83.8945 174.379 83.6953 174.309 83.4375ZM198.637 76.6875C197.934 77.7188 197.137 78.7266 196.246 79.7109C195.355 80.6719 194.406 81.5391 193.398 82.3125C192.414 83.0625 191.395 83.6719 190.34 84.1406C189.309 84.6094 188.301 84.8438 187.316 84.8438C186.801 84.8438 186.238 84.7148 185.629 84.457C185.043 84.2227 184.504 83.8477 184.012 83.332C183.52 82.8164 183.121 82.1484 182.816 81.3281C182.535 80.5078 182.453 79.5117 182.57 78.3398C182.664 77.3789 182.957 76.3711 183.449 75.3164C183.965 74.2383 184.586 73.2539 185.312 72.3633C186.062 71.4727 186.895 70.7344 187.809 70.1484C188.746 69.5625 189.684 69.2695 190.621 69.2695C191.512 69.2695 192.156 69.4922 192.555 69.9375C192.953 70.3828 193.129 70.9336 193.082 71.5898C193.012 72.3164 192.801 72.9844 192.449 73.5938C192.121 74.2031 191.723 74.7539 191.254 75.2461C190.785 75.7383 190.281 76.1836 189.742 76.582C189.227 76.9805 188.734 77.3438 188.266 77.6719C187.75 78.0234 187.258 78.3633 186.789 78.6914C186.32 78.9961 185.91 79.2773 185.559 79.5352C185.582 80.1211 185.688 80.6133 185.875 81.0117C186.062 81.4102 186.297 81.7383 186.578 81.9961C186.859 82.2305 187.176 82.4062 187.527 82.5234C187.902 82.6172 188.277 82.6641 188.652 82.6641C189.449 82.6641 190.281 82.418 191.148 81.9258C192.016 81.4102 192.859 80.8008 193.68 80.0977C194.523 79.3711 195.297 78.6211 196 77.8477C196.727 77.0742 197.324 76.4062 197.793 75.8438C197.957 75.6562 198.121 75.5508 198.285 75.5273C198.473 75.4805 198.613 75.5039 198.707 75.5977C198.824 75.668 198.883 75.8086 198.883 76.0195C198.883 76.207 198.801 76.4297 198.637 76.6875ZM189.637 71.2734C189.355 71.2734 189.016 71.4141 188.617 71.6953C188.242 71.9766 187.867 72.3867 187.492 72.9258C187.117 73.4414 186.766 74.0859 186.438 74.8594C186.109 75.6094 185.863 76.4766 185.699 77.4609C185.98 77.25 186.285 77.0391 186.613 76.8281C186.941 76.5938 187.27 76.3477 187.598 76.0898C188.605 75.3164 189.309 74.6367 189.707 74.0508C190.105 73.4648 190.328 72.9609 190.375 72.5391C190.422 72.0938 190.375 71.7773 190.234 71.5898C190.094 71.3789 189.895 71.2734 189.637 71.2734ZM82.9023 119.863C82.8789 119.793 82.9492 119.617 83.1133 119.336C83.2773 119.031 83.4531 118.668 83.6406 118.246C83.8516 117.801 84.0508 117.309 84.2383 116.77C84.4492 116.207 84.5898 115.633 84.6602 115.047C84.7539 114.461 84.7539 113.875 84.6602 113.289C84.5664 112.703 84.3203 112.141 83.9219 111.602C83.6875 111.32 83.3359 111.168 82.8672 111.145C82.4219 111.098 81.9062 111.168 81.3203 111.355C80.7578 111.52 80.1602 111.789 79.5273 112.164C78.918 112.516 78.3555 112.938 77.8398 113.43C77.3242 113.898 76.8789 114.426 76.5039 115.012C76.1523 115.598 75.9531 116.195 75.9062 116.805C75.8594 117.297 75.8711 117.754 75.9414 118.176C76.0352 118.598 76.1523 118.984 76.293 119.336C76.4336 119.688 76.5859 120.016 76.75 120.32C76.9141 120.625 77.0664 120.895 77.207 121.129C77.3945 121.457 77.6875 121.82 78.0859 122.219C78.4844 122.617 78.918 123.074 79.3867 123.59C79.8555 124.082 80.3242 124.645 80.793 125.277C81.2617 125.91 81.6719 126.625 82.0234 127.422C82.375 128.219 82.6211 129.109 82.7617 130.094C82.9023 131.078 82.8906 132.168 82.7266 133.363C82.4688 135.098 82.0586 136.539 81.4961 137.688C80.9336 138.859 80.3125 139.797 79.6328 140.5C78.9766 141.203 78.3086 141.707 77.6289 142.012C76.9492 142.34 76.3867 142.551 75.9414 142.645C75.5898 142.715 75.168 142.773 74.6758 142.82C74.207 142.891 73.7031 142.879 73.1641 142.785C72.6484 142.715 72.1211 142.551 71.582 142.293C71.043 142.059 70.5625 141.684 70.1406 141.168C69.6484 140.582 69.2617 139.949 68.9805 139.27C68.7227 138.684 68.5352 138.004 68.418 137.23C68.2773 136.48 68.3359 135.695 68.5938 134.875C68.7812 134.664 68.9805 134.477 69.1914 134.312C69.4023 134.148 69.6133 134.008 69.8242 133.891C70.0586 133.75 70.3047 133.621 70.5625 133.504C70.8672 133.41 71.1719 133.328 71.4766 133.258C71.7344 133.211 72.0039 133.188 72.2852 133.188C72.5898 133.164 72.8711 133.199 73.1289 133.293C72.7773 133.691 72.5312 134.066 72.3906 134.418C72.2969 134.605 72.2266 134.77 72.1797 134.91C72.0859 135.355 72.0508 135.883 72.0742 136.492C72.1211 137.125 72.25 137.723 72.4609 138.285C72.6953 138.871 73.0234 139.363 73.4453 139.762C73.8672 140.184 74.4297 140.406 75.1328 140.43C76.8438 140.477 78.2969 139.141 79.4922 136.422C79.8906 135.578 80.0898 134.723 80.0898 133.855C80.1133 132.988 80.0078 132.156 79.7734 131.359C79.5625 130.562 79.2695 129.824 78.8945 129.145C78.543 128.441 78.1797 127.844 77.8047 127.352C77.4297 126.859 76.9727 126.332 76.4336 125.77C75.918 125.184 75.4023 124.551 74.8867 123.871C74.3711 123.191 73.9023 122.453 73.4805 121.656C73.082 120.859 72.8125 119.992 72.6719 119.055C72.4844 117.742 72.6016 116.547 73.0234 115.469C73.4688 114.367 74.0547 113.406 74.7812 112.586C75.5312 111.766 76.3398 111.098 77.207 110.582C78.0977 110.066 78.8828 109.738 79.5625 109.598C83.3359 108.848 85.8086 109.48 86.9805 111.496C87.4727 112.27 87.7422 113.09 87.7891 113.957C87.8359 114.824 87.7773 115.633 87.6133 116.383C87.4727 117.109 87.2852 117.73 87.0508 118.246C86.8398 118.738 86.6992 119.008 86.6289 119.055C86.4883 119.195 86.2656 119.348 85.9609 119.512C85.6562 119.676 85.1641 119.828 84.4844 119.969C84.2969 120.016 84.1094 120.039 83.9219 120.039C83.7578 120.039 83.582 120.027 83.3945 120.004C83.207 119.98 83.043 119.934 82.9023 119.863ZM84.5547 151.012C84.3906 150.941 84.2266 150.836 84.0625 150.695C83.9219 150.578 83.7812 150.426 83.6406 150.238C83.5 150.074 83.3828 149.863 83.2891 149.605C83.9453 147.098 84.5078 144.918 84.9766 143.066C85.4219 141.215 85.8086 139.668 86.1367 138.426C86.4883 136.973 86.793 135.754 87.0508 134.77C87.2852 133.832 87.5195 132.895 87.7539 131.957C87.9414 131.137 88.1406 130.258 88.3516 129.32C88.5859 128.383 88.7969 127.504 88.9844 126.684C89.2188 125.77 89.3594 125.043 89.4062 124.504C89.4531 123.941 89.2773 123.461 88.8789 123.062C89.1602 122.828 89.4414 122.652 89.7227 122.535C90.0273 122.395 90.2969 122.301 90.5312 122.254C90.7891 122.184 91.0469 122.16 91.3047 122.184C91.9375 122.23 92.3242 122.43 92.4648 122.781C92.6289 123.133 92.6523 123.695 92.5352 124.469C92.5117 124.586 92.4883 124.691 92.4648 124.785C92.4648 124.855 92.4648 124.938 92.4648 125.031C92.793 124.656 93.1562 124.293 93.5547 123.941C93.9531 123.59 94.3516 123.273 94.75 122.992C95.1719 122.711 95.5938 122.488 96.0156 122.324C96.4609 122.137 96.8828 122.043 97.2812 122.043C97.8203 122.043 98.2539 122.184 98.582 122.465C98.9336 122.723 99.2031 123.074 99.3906 123.52C99.5781 123.965 99.6953 124.469 99.7422 125.031C99.7891 125.57 99.8008 126.109 99.7773 126.648C99.7539 127.234 99.6484 127.855 99.4609 128.512C99.2969 129.168 99.0625 129.836 98.7578 130.516C98.4531 131.195 98.1016 131.863 97.7031 132.52C97.3047 133.176 96.8828 133.785 96.4375 134.348C96.5312 134.371 96.5898 134.395 96.6133 134.418C96.6367 134.418 96.6484 134.43 96.6484 134.453C96.6484 134.453 96.6602 134.465 96.6836 134.488C96.7305 134.488 96.8125 134.488 96.9297 134.488C97.4688 134.488 98.0195 134.348 98.582 134.066C99.1445 133.785 99.6953 133.434 100.234 133.012C100.773 132.566 101.289 132.086 101.781 131.57C102.297 131.055 102.754 130.562 103.152 130.094C103.574 129.602 103.926 129.168 104.207 128.793C104.488 128.395 104.699 128.113 104.84 127.949C105.027 127.715 105.203 127.562 105.367 127.492C105.531 127.398 105.66 127.387 105.754 127.457C105.848 127.527 105.895 127.668 105.895 127.879C105.895 128.066 105.824 128.312 105.684 128.617C105.59 128.828 105.391 129.168 105.086 129.637C104.781 130.105 104.406 130.633 103.961 131.219C103.516 131.805 103 132.414 102.414 133.047C101.852 133.68 101.254 134.254 100.621 134.77C99.9883 135.285 99.332 135.707 98.6523 136.035C97.9961 136.387 97.3516 136.562 96.7188 136.562C96.4141 136.562 96.168 136.551 95.9805 136.527C95.793 136.504 95.6289 136.457 95.4883 136.387C95.3711 136.34 95.2539 136.281 95.1367 136.211C95.0195 136.164 94.8789 136.105 94.7148 136.035C94.293 136.363 93.8594 136.609 93.4141 136.773C92.9688 136.961 92.5352 137.055 92.1133 137.055C91.7148 137.055 91.3633 136.984 91.0586 136.844C90.7773 136.727 90.543 136.551 90.3555 136.316C90.168 136.105 90.0156 135.871 89.8984 135.613C89.7812 135.332 89.6875 135.062 89.6172 134.805C89.5938 134.898 89.5703 134.98 89.5469 135.051C89.5469 135.121 89.5352 135.215 89.5117 135.332C89.2305 136.457 88.9375 137.758 88.6328 139.234C88.375 140.5 88.0586 142.035 87.6836 143.84C87.332 145.668 86.957 147.742 86.5586 150.062C86.418 150.695 86.1719 151.059 85.8203 151.152C85.4453 151.246 85.0234 151.199 84.5547 151.012ZM90.9883 129.215C90.8711 129.613 90.7422 130.082 90.6016 130.621C90.4844 131.137 90.3438 131.758 90.1797 132.484C90.3672 132.344 90.5781 132.238 90.8125 132.168C91.0469 132.098 91.2812 132.062 91.5156 132.062C91.7734 132.062 92.1016 132.203 92.5 132.484C92.8984 132.742 93.3789 133.023 93.9414 133.328C94.293 132.906 94.6562 132.438 95.0312 131.922C95.4297 131.383 95.7812 130.832 96.0859 130.27C96.4141 129.707 96.6836 129.133 96.8945 128.547C97.1289 127.961 97.2578 127.398 97.2812 126.859C97.3281 126.156 97.2461 125.605 97.0352 125.207C96.8242 124.809 96.4727 124.609 95.9805 124.609C95.2539 124.609 94.457 125.043 93.5898 125.91C92.7461 126.754 91.8789 127.855 90.9883 129.215ZM113.734 130.41C113.5 131.301 113.184 132.133 112.785 132.906C112.387 133.68 111.906 134.348 111.344 134.91C110.805 135.473 110.184 135.906 109.48 136.211C108.801 136.539 108.051 136.703 107.23 136.703C106.27 136.703 105.508 136.492 104.945 136.07C104.406 135.672 103.996 135.168 103.715 134.559C103.457 133.949 103.305 133.281 103.258 132.555C103.188 131.828 103.152 131.148 103.152 130.516C103.152 130.07 103.211 129.578 103.328 129.039C103.422 128.5 103.562 127.949 103.75 127.387C103.938 126.824 104.172 126.262 104.453 125.699C104.758 125.137 105.109 124.621 105.508 124.152C105.648 123.754 105.859 123.402 106.141 123.098C106.445 122.793 106.785 122.547 107.16 122.359C107.559 122.148 107.98 121.996 108.426 121.902C108.871 121.785 109.305 121.727 109.727 121.727C109.797 121.727 109.855 121.738 109.902 121.762C109.973 121.785 110.043 121.809 110.113 121.832C110.418 121.855 110.793 121.973 111.238 122.184C111.707 122.395 112.152 122.711 112.574 123.133C113.02 123.555 113.395 124.094 113.699 124.75C114.004 125.383 114.156 126.156 114.156 127.07C114.156 127.258 114.145 127.492 114.121 127.773C114.098 128.031 114.074 128.254 114.051 128.441C114.59 128.23 115.152 127.973 115.738 127.668C116.324 127.363 116.887 127.047 117.426 126.719C117.988 126.367 118.504 126.016 118.973 125.664C119.441 125.312 119.816 124.996 120.098 124.715C120.332 124.504 120.531 124.387 120.695 124.363C120.859 124.34 120.977 124.387 121.047 124.504C121.117 124.621 121.129 124.785 121.082 124.996C121.035 125.207 120.906 125.441 120.695 125.699C120.578 125.84 120.273 126.121 119.781 126.543C119.312 126.965 118.75 127.422 118.094 127.914C117.438 128.406 116.723 128.887 115.949 129.355C115.176 129.824 114.438 130.176 113.734 130.41ZM107.793 125.066C107.723 125.277 107.688 125.5 107.688 125.734C107.688 126.109 107.711 126.508 107.758 126.93C107.805 127.328 107.922 127.691 108.109 128.02C108.297 128.348 108.59 128.629 108.988 128.863C109.41 129.074 109.984 129.18 110.711 129.18C110.828 129.18 110.945 129.18 111.062 129.18C111.18 129.156 111.297 129.133 111.414 129.109C111.484 128.805 111.543 128.535 111.59 128.301C111.66 128.043 111.695 127.82 111.695 127.633C111.742 127.188 111.742 126.73 111.695 126.262C111.648 125.793 111.555 125.371 111.414 124.996C111.297 124.598 111.133 124.281 110.922 124.047C110.734 123.789 110.5 123.66 110.219 123.66C109.773 123.66 109.34 123.789 108.918 124.047C108.52 124.281 108.145 124.621 107.793 125.066ZM105.543 131.254C105.543 131.676 105.566 132.098 105.613 132.52C105.66 132.918 105.754 133.281 105.895 133.609C106.035 133.914 106.223 134.172 106.457 134.383C106.691 134.57 106.996 134.664 107.371 134.664C107.793 134.664 108.18 134.57 108.531 134.383C108.883 134.172 109.199 133.914 109.48 133.609C109.762 133.281 110.008 132.918 110.219 132.52C110.453 132.098 110.652 131.664 110.816 131.219C110.652 131.242 110.488 131.266 110.324 131.289C110.184 131.289 110.02 131.289 109.832 131.289C108.941 131.289 108.168 131.031 107.512 130.516C106.879 129.977 106.387 129.297 106.035 128.477C105.895 128.969 105.777 129.449 105.684 129.918C105.59 130.387 105.543 130.832 105.543 131.254ZM127.902 130.41C127.668 131.301 127.352 132.133 126.953 132.906C126.555 133.68 126.074 134.348 125.512 134.91C124.973 135.473 124.352 135.906 123.648 136.211C122.969 136.539 122.219 136.703 121.398 136.703C120.438 136.703 119.676 136.492 119.113 136.07C118.574 135.672 118.164 135.168 117.883 134.559C117.625 133.949 117.473 133.281 117.426 132.555C117.355 131.828 117.32 131.148 117.32 130.516C117.32 130.07 117.379 129.578 117.496 129.039C117.59 128.5 117.73 127.949 117.918 127.387C118.105 126.824 118.34 126.262 118.621 125.699C118.926 125.137 119.277 124.621 119.676 124.152C119.816 123.754 120.027 123.402 120.309 123.098C120.613 122.793 120.953 122.547 121.328 122.359C121.727 122.148 122.148 121.996 122.594 121.902C123.039 121.785 123.473 121.727 123.895 121.727C123.965 121.727 124.023 121.738 124.07 121.762C124.141 121.785 124.211 121.809 124.281 121.832C124.586 121.855 124.961 121.973 125.406 122.184C125.875 122.395 126.32 122.711 126.742 123.133C127.188 123.555 127.562 124.094 127.867 124.75C128.172 125.383 128.324 126.156 128.324 127.07C128.324 127.258 128.312 127.492 128.289 127.773C128.266 128.031 128.242 128.254 128.219 128.441C128.758 128.23 129.32 127.973 129.906 127.668C130.492 127.363 131.055 127.047 131.594 126.719C132.156 126.367 132.672 126.016 133.141 125.664C133.609 125.312 133.984 124.996 134.266 124.715C134.5 124.504 134.699 124.387 134.863 124.363C135.027 124.34 135.145 124.387 135.215 124.504C135.285 124.621 135.297 124.785 135.25 124.996C135.203 125.207 135.074 125.441 134.863 125.699C134.746 125.84 134.441 126.121 133.949 126.543C133.48 126.965 132.918 127.422 132.262 127.914C131.605 128.406 130.891 128.887 130.117 129.355C129.344 129.824 128.605 130.176 127.902 130.41ZM121.961 125.066C121.891 125.277 121.855 125.5 121.855 125.734C121.855 126.109 121.879 126.508 121.926 126.93C121.973 127.328 122.09 127.691 122.277 128.02C122.465 128.348 122.758 128.629 123.156 128.863C123.578 129.074 124.152 129.18 124.879 129.18C124.996 129.18 125.113 129.18 125.23 129.18C125.348 129.156 125.465 129.133 125.582 129.109C125.652 128.805 125.711 128.535 125.758 128.301C125.828 128.043 125.863 127.82 125.863 127.633C125.91 127.188 125.91 126.73 125.863 126.262C125.816 125.793 125.723 125.371 125.582 124.996C125.465 124.598 125.301 124.281 125.09 124.047C124.902 123.789 124.668 123.66 124.387 123.66C123.941 123.66 123.508 123.789 123.086 124.047C122.688 124.281 122.312 124.621 121.961 125.066ZM119.711 131.254C119.711 131.676 119.734 132.098 119.781 132.52C119.828 132.918 119.922 133.281 120.062 133.609C120.203 133.914 120.391 134.172 120.625 134.383C120.859 134.57 121.164 134.664 121.539 134.664C121.961 134.664 122.348 134.57 122.699 134.383C123.051 134.172 123.367 133.914 123.648 133.609C123.93 133.281 124.176 132.918 124.387 132.52C124.621 132.098 124.82 131.664 124.984 131.219C124.82 131.242 124.656 131.266 124.492 131.289C124.352 131.289 124.188 131.289 124 131.289C123.109 131.289 122.336 131.031 121.68 130.516C121.047 129.977 120.555 129.297 120.203 128.477C120.062 128.969 119.945 129.449 119.852 129.918C119.758 130.387 119.711 130.832 119.711 131.254ZM142.105 136.879C141.566 136.879 141.098 136.773 140.699 136.562C140.324 136.375 140.02 136.117 139.785 135.789C139.551 135.461 139.398 135.086 139.328 134.664C139.258 134.219 139.281 133.75 139.398 133.258C139.469 132.93 139.586 132.496 139.75 131.957C139.914 131.395 140.078 130.797 140.242 130.164C140.43 129.508 140.594 128.863 140.734 128.23C140.898 127.574 141.004 126.988 141.051 126.473C141.098 125.934 141.074 125.5 140.98 125.172C140.887 124.82 140.688 124.645 140.383 124.645C140.008 124.645 139.621 124.773 139.223 125.031C138.824 125.266 138.414 125.594 137.992 126.016C137.594 126.438 137.184 126.93 136.762 127.492C136.363 128.031 135.965 128.594 135.566 129.18C135.355 129.977 135.18 130.68 135.039 131.289C134.898 131.875 134.77 132.414 134.652 132.906C134.559 133.375 134.465 133.797 134.371 134.172C134.277 134.523 134.195 134.863 134.125 135.191C134.055 135.426 133.844 135.66 133.492 135.895C133.141 136.105 132.766 136.281 132.367 136.422C131.969 136.562 131.629 136.633 131.348 136.633C131.043 136.633 130.914 136.527 130.961 136.316C130.984 136.176 131.066 135.859 131.207 135.367C131.324 134.875 131.477 134.301 131.664 133.645C131.828 132.965 132.004 132.25 132.191 131.5C132.379 130.75 132.555 130.035 132.719 129.355C132.836 128.816 132.965 128.219 133.105 127.562C133.223 127 133.363 126.344 133.527 125.594C133.715 124.844 133.926 124.023 134.16 123.133C134.324 122.992 134.488 122.887 134.652 122.816C134.84 122.723 135.027 122.652 135.215 122.605C135.402 122.535 135.602 122.488 135.812 122.465C136 122.465 136.188 122.477 136.375 122.5C136.539 122.523 136.703 122.57 136.867 122.641C137.055 122.688 137.219 122.77 137.359 122.887C137.289 123.051 137.207 123.285 137.113 123.59C137.02 123.871 136.926 124.176 136.832 124.504C136.738 124.879 136.621 125.266 136.48 125.664C136.785 125.242 137.125 124.82 137.5 124.398C137.898 123.953 138.32 123.555 138.766 123.203C139.234 122.852 139.727 122.57 140.242 122.359C140.758 122.125 141.285 122.008 141.824 122.008C142.27 122.008 142.668 122.137 143.02 122.395C143.371 122.652 143.641 123.016 143.828 123.484C144.039 123.93 144.156 124.469 144.18 125.102C144.227 125.734 144.145 126.426 143.934 127.176L143.547 128.723C143.43 129.215 143.277 129.801 143.09 130.48C142.926 131.137 142.715 131.863 142.457 132.66C142.316 133.176 142.258 133.621 142.281 133.996C142.328 134.371 142.562 134.559 142.984 134.559C143.406 134.559 143.934 134.301 144.566 133.785C145.223 133.27 145.879 132.648 146.535 131.922C147.191 131.195 147.812 130.457 148.398 129.707C148.984 128.934 149.43 128.312 149.734 127.844C149.945 127.539 150.145 127.34 150.332 127.246C150.52 127.152 150.66 127.141 150.754 127.211C150.871 127.281 150.93 127.445 150.93 127.703C150.93 127.938 150.836 128.242 150.648 128.617C150.484 128.945 150.227 129.379 149.875 129.918C149.547 130.457 149.148 131.031 148.68 131.641C148.211 132.25 147.707 132.871 147.168 133.504C146.629 134.113 146.066 134.676 145.48 135.191C144.895 135.684 144.309 136.082 143.723 136.387C143.16 136.715 142.621 136.879 142.105 136.879Z" fill="#C15C17"/>
<circle cx="143" cy="144" r="124.5" stroke="#E27D47"/>
<defs>
<clipPath id="clip0">
<rect width="150" height="150" fill="white" transform="translate(98 98)"/>
</clipPath>
</defs>
</svg>
