<svg width="50" height="30" viewBox="0 0 50 30" fill="none" xmlns="http://www.w3.org/2000/svg">
  <path d="M44.4462 28.2828H19.6784C18.0159 28.2828 16.6681 26.9351 16.6681 25.2725V23.1545C16.6681 22.8212 16.9383 22.551 17.2716 22.551H46.8528C47.1861 22.551 47.4563 22.8213 47.4563 23.1545V25.2725C47.4565 26.9351 46.1088 28.2828 44.4462 28.2828Z" fill="#E49A6B"/>
  <path d="M46.8528 22.5508H43.9228C44.2562 22.5508 44.5265 22.821 44.5265 23.1542V25.2733C44.5265 26.9353 43.1784 28.2827 41.5153 28.2827H44.4453C46.1083 28.2827 47.4565 26.9354 47.4565 25.2733V23.1542C47.4565 22.821 47.1861 22.5508 46.8528 22.5508Z" fill="#E0925B"/>
  <path d="M46.8535 15.2927H17.2712C16.93 15.2927 16.657 15.0114 16.6677 14.6706C16.7512 12.0091 17.9845 1.71741 32.0624 1.71741C46.1404 1.71741 47.3736 12.0091 47.4572 14.6706C47.4677 15.0114 47.1947 15.2927 46.8535 15.2927Z" fill="#E49A6B"/>
  <path d="M32.0624 1.71741C31.557 1.71741 31.0702 1.73216 30.5974 1.75784C43.2955 2.44795 44.4465 12.1047 44.5271 14.6706C44.5378 15.0114 44.2647 15.2927 43.9236 15.2927H46.8536C47.1949 15.2927 47.4678 15.0114 47.4571 14.6706C47.3735 12.0091 46.1403 1.71741 32.0624 1.71741Z" fill="#E0925B"/>
  <path d="M47.0049 22.5509H17.1196C15.8701 22.5509 14.8571 21.5379 14.8571 20.2883C14.8571 19.0388 15.8701 18.0258 17.1196 18.0258H47.0049C48.2545 18.0258 49.2675 19.0388 49.2675 20.2883C49.2675 21.538 48.2545 22.5509 47.0049 22.5509Z" fill="#E07F5D"/>
  <path d="M47.0037 18.0258H44.0737C45.324 18.0258 46.3375 19.0388 46.3375 20.2883C46.3375 21.5379 45.3239 22.5509 44.0737 22.5509H47.0037C48.254 22.5509 49.2675 21.5379 49.2675 20.2883C49.2675 19.0388 48.254 18.0258 47.0037 18.0258Z" fill="#D06D4A"/>
  <path d="M47.9009 18.0258H16.2236C15.4688 18.0258 14.8571 17.414 14.8571 16.6592C14.8571 15.9045 15.4688 15.2927 16.2236 15.2927H47.9009C48.6557 15.2927 49.2675 15.9045 49.2675 16.6592C49.2675 17.414 48.6557 18.0258 47.9009 18.0258Z" fill="#FFE589"/>
  <path d="M47.9002 15.2927H44.9702C45.7254 15.2927 46.3375 15.9045 46.3375 16.6592C46.3375 17.414 45.7254 18.0258 44.9702 18.0258H47.9002C48.6554 18.0258 49.2675 17.414 49.2675 16.6592C49.2675 15.9046 48.6554 15.2927 47.9002 15.2927Z" fill="#FFCD55"/>
  <path d="M50 16.6592C50 15.5992 49.2091 14.7225 48.1866 14.5821C48.1568 13.7667 48.0182 12.1999 47.4396 10.4334C47.3136 10.0489 46.8995 9.83937 46.5154 9.96536C46.1309 10.0913 45.9214 10.5051 46.0474 10.8895C46.5534 12.434 46.6871 13.8066 46.7198 14.5602H23.943C22.9731 14.5938 22.9739 15.9919 23.943 16.0252H47.9002C48.7406 16.0551 48.7399 17.2637 47.9002 17.2933H16.2244C15.384 17.2634 15.3846 16.0548 16.2244 16.0252H20.5172C21.4872 15.9916 21.4864 14.5935 20.5172 14.5602H17.4048C17.5321 11.5438 19.0106 2.4498 32.0623 2.4498C38.0065 2.4498 42.2449 4.31162 44.6599 7.9836C44.8822 8.32163 45.3363 8.41538 45.6743 8.1931C46.0124 7.97081 46.1061 7.51656 45.8838 7.17863C42.7662 2.58302 37.9101 1.03178 32.0623 0.984802C28.7028 0.984802 25.7926 1.56416 23.4125 2.70667C18.248 5.04041 16.0115 10.5487 15.9379 14.5821C14.1307 14.8287 13.4835 17.1379 14.8965 18.2836C13.5125 19.7768 14.0846 22.2738 15.9413 23.0415C15.9381 23.0787 15.9356 23.1162 15.9356 23.1542V25.2733C15.9356 27.3366 17.615 29.0152 19.6793 29.0152H34.1705C35.1404 28.9816 35.1396 27.5835 34.1705 27.5502H19.6793C18.4228 27.5502 17.4006 26.5288 17.4006 25.2733V23.2833H46.7239V25.2733C46.7239 26.5288 45.7017 27.5502 44.4452 27.5502H37.6564C36.6865 27.5838 36.6872 28.9819 37.6564 29.0152H44.4453C46.5096 29.0152 48.189 27.3366 48.189 25.2733V23.1542C48.189 23.1161 48.1864 23.0787 48.1833 23.0415C50.0408 22.2733 50.6116 19.7762 49.228 18.2836C49.6988 17.8984 50 17.3135 50 16.6592ZM47.005 21.8184H17.1196C15.0893 21.7341 15.0909 18.8418 17.1196 18.7583H47.005C49.0353 18.8426 49.0337 21.7349 47.005 21.8184Z" fill="black"/>
  <path d="M0.727178 4.76806H14.8475C15.8175 4.73446 15.8167 3.33637 14.8475 3.30307H0.727178C-0.242653 3.33667 -0.241969 4.73475 0.727178 4.76806Z" fill="white"/>
  <path d="M12.2832 8.67477H0.727153C-0.242775 8.70837 -0.241994 10.1065 0.727153 10.1398H12.2831C13.253 10.1062 13.2523 8.70808 12.2832 8.67477Z" fill="white"/>
  <path d="M0.727178 15.5115H9.31804C10.288 15.4779 10.2872 14.0798 9.31804 14.0464H0.727178C-0.242653 14.08 -0.241969 15.4782 0.727178 15.5115Z" fill="white"/>
  <path d="M0.727178 20.8831H9.31804C10.288 20.8495 10.2872 19.4515 9.31804 19.4182H0.727178C-0.242653 19.4517 -0.241969 20.8498 0.727178 20.8831Z" fill="white"/>
  <path d="M11.8024 24.7898H0.727153C-0.242775 24.8234 -0.241994 26.2215 0.727153 26.2548H11.8023C12.7722 26.2212 12.7715 24.8231 11.8024 24.7898Z" fill="white"/>
  <path d="M27.2427 6.08617C27.4703 6.08617 27.6945 5.98049 27.8376 5.78184C28.074 5.45358 27.9997 4.99581 27.6715 4.75936L26.8791 4.1884C26.0726 3.64859 25.2559 4.78358 26.0227 5.37701L26.815 5.94797C26.9447 6.04134 27.0944 6.08617 27.2427 6.08617Z" fill="black"/>
  <path d="M37.949 6.01038C38.253 5.74356 38.2832 5.28071 38.0163 4.97667C37.7495 4.67254 37.2866 4.64246 36.9826 4.90938L36.2485 5.55369C35.9445 5.82052 35.9143 6.28336 36.1812 6.5874C36.4489 6.89232 36.9122 6.92084 37.2149 6.65469L37.949 6.01038Z" fill="black"/>
  <path d="M32.4989 5.99363L31.5246 6.06102C31.121 6.08895 30.8165 6.43869 30.8444 6.84235C30.871 7.24678 31.2272 7.55188 31.6258 7.52249L32.6001 7.4551C33.0036 7.42717 33.3082 7.07743 33.2802 6.67377C33.2523 6.27022 32.9028 5.96492 32.4989 5.99363Z" fill="black"/>
  <path d="M36.5871 9.37858L35.8503 8.73749C35.5452 8.47203 35.0825 8.50407 34.8169 8.80928C34.5513 9.11449 34.5835 9.57714 34.8887 9.8427L35.6255 10.4838C35.9293 10.7485 36.3924 10.7181 36.6589 10.412C36.9244 10.1068 36.8923 9.64414 36.5871 9.37858Z" fill="black"/>
  <path d="M27.1919 10.3434C27.2893 10.3434 27.3883 10.3239 27.4833 10.2826L28.3792 9.89355C29.2554 9.47641 28.6979 8.19424 27.7956 8.54975L26.8997 8.93876C26.1727 9.26389 26.4081 10.3389 27.1919 10.3434Z" fill="black"/>
  <path d="M22.7647 7.33477L21.9808 7.91735C21.6561 8.15869 21.5885 8.61753 21.8298 8.94217C22.0724 9.26886 22.5331 9.33293 22.8546 9.09316L23.6385 8.51058C23.9633 8.26925 24.0309 7.81041 23.7895 7.48577C23.5483 7.16112 23.0894 7.09344 22.7647 7.33477Z" fill="black"/>
  <path d="M41.5603 7.33474C41.2356 7.09341 40.7769 7.16099 40.5355 7.48574C40.2942 7.81038 40.3618 8.26922 40.6865 8.51056L41.4704 9.09314C41.792 9.33301 42.2525 9.26884 42.4952 8.94215C42.7365 8.6175 42.669 8.15866 42.3442 7.91733L41.5603 7.33474Z" fill="black"/>
</svg>
